<svg id="Layer_1" data-name="Layer 1" xmlns="http://www.w3.org/2000/svg" viewBox="0 0 187.2 72"><defs><style>.cls-1,.cls-3{fill:#6f9b43;}.cls-1,.cls-2{stroke:#fff;stroke-miterlimit:10;stroke-width:0.45px;}.cls-2{fill:#35383d;}</style></defs><title>Artboard 1</title><g id="logo_1" data-name="logo 1"><g id="Logo"><path class="cls-1" d="M64.87,31.1C65.05,29.3,65.71,16,66,12.6l.48-.15c3.83,2.52,12.18,8.45,12.75,9,0-1.4-.06-7.75,0-8.87l5.86.12c-.18,2-.45,5.86-.66,9.67s-.42,7.38-.48,9.09l-.48.12c-2.71-1.67-11.58-8.13-12.65-9.09v8.75Z"/><path class="cls-1" d="M86.6,29.06c.79-1.28,7.91-13.18,10.6-17.06h.55c3.24,4.59,10.19,15.3,11.3,16.76l-5.38,3c-.79-1.22-2.13-3.51-2.34-3.81l-7.8.39c-.14.23-1.11,2.27-1.69,3.46Zm13-4.8c-.7-1.43-1.69-3.14-2.19-4.14-.61,1.22-1.52,3-2.19,4.38Z"/><path class="cls-1" d="M113.55,31c0-.66.05-4.26.05-7V17.54c-1.08,0-4.88.12-5.69.15V13c1.2.12,7.51.21,7.8.21H118c.5,0,6.32-.09,7.59-.21v4.68c-.5,0-5.42-.15-5.66-.15v6.79c0,2.62,0,6.12.09,6.62Z"/><path class="cls-1" d="M134.55,23.27c0,2.54.09,7.07.12,7.66h-6.48c0-1.1.06-7,.06-7.7V20.52c0-.45-.06-6.95-.06-7.57h6.48c0,.48-.12,4.52-.12,7.61Z"/><path class="cls-1" d="M159.1,15.17c-1,1.4-9,13.92-11,16.85h-.55c-2.77-4.06-9.43-15.3-10.25-16.64l5.84-3c.55,1.13,4.24,8.76,5.05,10.46.79-1.73,4.79-9.66,5.17-10.46Z"/><path class="cls-1" d="M173.59,31.2c-1.08,0-10.66-.27-12.21-.27.05-1.35.05-6.77.05-7.36V20.2c0-.42-.05-6.53-.05-7.27,1.66,0,10.57-.36,11.68-.45l.12,4.35c-1,0-5.17.15-5.64.15v3.07c.52,0,3.61-.12,4.76-.23l.05,4.24c-.7,0-4.24-.09-4.82-.09v2.71c.67,0,4.7.06,6-.06Z"/><path class="cls-2" d="M78.22,59c-1.08,0-10.66-.29-12.21-.29.05-1.45.05-7.28.05-7.92V47.19c0-.45-.05-7-.05-7.83,1.66,0,10.57-.39,11.68-.48l.12,4.69c-1,0-5.17.16-5.64.16V47c.52,0,3.61-.13,4.76-.25L77,51.3c-.7,0-4.24-.1-4.82-.1v3c.67,0,4.7.06,6-.06Z"/><path class="cls-2" d="M82.41,58.07c.17-1.81.82-14.79,1.08-18.16l.47-.15c3.74,2.48,11.88,8.29,12.44,8.89,0-1.37-.05-7.61,0-8.71l5.72.12c-.17,2-.43,5.76-.64,9.49s-.41,7.23-.47,8.92l-.47.12c-2.71-1.64-11.3-8-12.38-8.92v8.59Z"/><path class="cls-2" d="M121.23,54.11c0,1,.06,3.22.06,3.76a30.92,30.92,0,0,1-6,.6c-7.89,0-11.09-4.11-10.84-8.13.29-5.07,2.66-8.72,13.76-10.78l1.23,5.25c-3.77.45-8.58,2.32-8.58,5.82,0,2.5,2.57,3.37,4.46,3.31V52c0-.71-.05-1.4-.05-2.32h6v2.53Z"/><path class="cls-2" d="M132.3,40c0,.6-.14,5.82-.14,9v4.45c.64,0,3.77,0,5.9-.12v5c-.79,0-10-.27-12.3-.27.05-1.35.05-6.77.05-7.36V47.3c0-.42-.05-6.77-.09-7.27Z"/><path class="cls-2" d="M147.6,50.37c0,2.54.09,7.07.12,7.66h-6.48c0-1.1.06-7,.06-7.7V47.63c0-.45-.06-6.95-.06-7.57h6.48c0,.48-.12,4.56-.12,7.61Z"/><path class="cls-2" d="M151.92,54c2.86.06,5.87-.42,5.87-1.64,0-.57-.52-.9-2.71-1.91-1.69-.78-3.91-2-3.91-4.38,0-3.13,4.29-6.2,11.33-6.59l.7,4.59c-3.61,0-5.42.23-5.42,1.31,0,.66,1,1,2.71,1.7,1.43.57,4,1.64,4,4.17,0,3.1-3.48,6.62-11.83,7.27Z"/><path class="cls-2" d="M167.95,58.07c0-1.1.05-7,.05-7.7V47.66c0-.45-.05-6.95-.12-7.57h6.57c-.05.48-.14,5.37-.14,5.82v.9l6.4-.48v-1c0-.42-.05-4.71-.12-5.28h6.54c0,.62-.12,7.72-.12,8.32v2.49c0,.33.05,6.68.12,7.16h-6.54c0-.9.12-5,.12-5.42V50.84l-6.4.48v.75c0,1.17.09,5.42.12,6Z"/><path class="cls-3" d="M1.66,50.84a34.85,34.85,0,0,1-.9-16.47A27.75,27.75,0,0,1,7,21c4.63-5.29,10.89-8.22,17.45-10.42A46.26,46.26,0,0,0,41.22,1.15c.15-.14.77-.9,1-.9s.29.37.4.59c.54,1.15,1.06,2.31,1.54,3.5,3,7.53,5,16.83,1.12,24.39-2.6,5.09-7.54,8.25-12.85,10C25.08,41.16,16.37,41,9.94,45.84a5.66,5.66,0,0,0-2,2.29c-.35-7.81,4.58-15.71,10.24-20.61a37.13,37.13,0,0,1,4.91-3.61q1.48-.9,3-1.71A15.13,15.13,0,0,1,29,20.82c-.53-.33-2.49.51-3.07.7a28.69,28.69,0,0,0-3.05,1.24,35.24,35.24,0,0,0-6.78,4.17c-4.77,3.75-8.63,8.85-9.75,14.87A21,21,0,0,0,9.87,58.07a28.22,28.22,0,0,0,9.37,8.13,39.55,39.55,0,0,0,9,3.54A52.8,52.8,0,0,0,34,70.91c.57.08,6.62.7,6.62.61,0,.13-5.79.23-6.22.23a52.26,52.26,0,0,1-8.38-.69c-6.51-1-12.85-3.69-17.53-8.47A29.66,29.66,0,0,1,1.66,50.84Z"/></g></g></svg>